HIERARCHY
ROOT Hips
{
	OFFSET 0.000000 88.474243 0.000000
	CHANNELS 6 Xposition Yposition Zposition Zrotation Yrotation Xrotation 
	JOINT Hips_Spine
	{
		OFFSET 0.000000 0.000000 0.000000
		CHANNELS 3 Zrotation Yrotation Xrotation
		JOINT Spine
		{
			OFFSET 0.005100 8.711998 -0.691000
			CHANNELS 3 Zrotation Yrotation Xrotation
			JOINT Spine1
			{
				OFFSET -0.009200 8.660301 -1.275000
				CHANNELS 3 Zrotation Yrotation Xrotation
				JOINT Spine2
				{
					OFFSET 0.006300 9.852501 -1.857000
					CHANNELS 3 Zrotation Yrotation Xrotation
					JOINT Spine2_Neck
					{
						OFFSET 0.000000 0.000000 0.000000
						CHANNELS 3 Zrotation Yrotation Xrotation
						JOINT Neck
						{
							OFFSET 0.016300 11.420799 -0.263300
							CHANNELS 3 Zrotation Yrotation Xrotation
							End Site #name: Head
							{
								OFFSET -0.019200 9.262405 2.362500
							}
						}
					}
					JOINT Spine2_LeftShoulder
					{
						OFFSET 0.000000 0.000000 0.000000
						CHANNELS 3 Zrotation Yrotation Xrotation
						JOINT LeftShoulder
						{
							OFFSET 5.616900 6.732201 -0.345700
							CHANNELS 3 Zrotation Yrotation Xrotation
							JOINT LeftArm
							{
								OFFSET 10.664888 -0.183372 -2.440700
								CHANNELS 3 Zrotation Yrotation Xrotation
								JOINT LeftForeArm
								{
									OFFSET 27.459126 0.000000 0.000000
									CHANNELS 3 Zrotation Yrotation Xrotation
									End Site #name: LeftHand
									{
										OFFSET 21.306858 0.000000 0.000000
									}
								}
							}
						}
					}
					JOINT Spine2_RightShoulder
					{
						OFFSET 0.000000 0.000000 0.000000
						CHANNELS 3 Zrotation Yrotation Xrotation
						JOINT RightShoulder
						{
							OFFSET -5.580300 6.737503 -0.344400
							CHANNELS 3 Zrotation Yrotation Xrotation
							JOINT RightArm
							{
								OFFSET -10.679335 -0.188484 -2.383900
								CHANNELS 3 Zrotation Yrotation Xrotation
								JOINT RightForeArm
								{
									OFFSET -27.503529 0.000000 0.000000
									CHANNELS 3 Zrotation Yrotation Xrotation
									End Site #name: RightHand
									{
										OFFSET -21.306808 0.000000 0.000000
									}
								}
							}
						}
					}
				}
			}
		}
	}
	JOINT Hips_LeftUpLeg
	{
		OFFSET 0.000000 0.000000 0.000000
		CHANNELS 3 Zrotation Yrotation Xrotation
		JOINT LeftUpLeg
		{
			OFFSET 6.857700 -6.739601 0.312100
			CHANNELS 3 Zrotation Yrotation Xrotation
			JOINT LeftLeg
			{
				OFFSET -0.367590 -34.731552 -4.572400
				CHANNELS 3 Zrotation Yrotation Xrotation
				End Site #name: LeftFoot
				{
					OFFSET 0.367590 -34.656704 -6.067400
				}
			}
		}
	}
	JOINT Hips_RightUpLeg
	{
		OFFSET 0.000000 0.000000 0.000000
		CHANNELS 3 Zrotation Yrotation Xrotation
		JOINT RightUpLeg
		{
			OFFSET -6.876100 -6.733299 0.301000
			CHANNELS 3 Zrotation Yrotation Xrotation
			JOINT RightLeg
			{
				OFFSET 0.347353 -34.795158 -4.515900
				CHANNELS 3 Zrotation Yrotation Xrotation
				End Site #name: RightFoot
				{
					OFFSET -0.347353 -34.589367 -6.070300
				}
			}
		}
	}
}
MOTION
Frames: 9
Frame Time: 0.041667
2.425325 -0.034530 -4.599406 175.417996 -28.076167 -179.118478 0.000000 -0.000000 0.000000 -5.431620 -2.872585 6.454128 -0.227596 -2.245621 2.086398 0.000000 0.000000 0.000000 0.424137 -1.860957 2.766539 1.329979 -26.097417 -2.676373 -0.291682 -1.795586 0.001614 2.189032 -6.095414 0.668825 -86.983859 -18.716241 14.260565 3.971955 -21.268644 0.579719 -0.259432 -2.770993 0.511044 15.280001 12.216107 2.700322 57.495109 15.154230 15.203551 9.749783 48.283066 10.663259 0.000000 0.000000 0.000000 -3.098404 16.311290 -4.160668 1.111434 -33.677486 -17.002396 0.000000 0.000000 -0.000000 -4.090757 -54.740888 -11.067803 -11.998619 -4.885772 23.374574 
2.480510 0.003198 -4.700079 175.440717 -27.986432 -179.137700 0.000000 -0.000000 0.000000 -5.590147 -2.813551 6.578356 -0.263573 -2.200656 2.031071 0.000000 0.000000 0.000000 0.378243 -1.830290 2.700331 1.150642 -25.760557 -2.851029 -0.322806 -1.759840 -0.009911 2.183417 -6.540382 0.803030 -86.853245 -18.909064 14.465938 3.914394 -21.775485 0.526329 -0.283454 -2.730229 0.454951 14.972335 12.189690 2.643605 57.660938 15.293791 15.567151 8.561444 47.747555 9.802253 0.000000 0.000000 0.000000 -3.117168 16.061575 -4.542207 0.974898 -33.482516 -16.545209 0.000000 -0.000000 -0.000000 -3.931829 -53.990365 -11.052720 -11.287693 -3.841430 22.975145 
2.539928 0.041726 -4.793808 175.409720 -28.084473 -179.133121 0.000000 -0.000000 0.000000 -5.756247 -2.746284 6.691092 -0.300968 -2.143330 1.959561 0.000000 0.000000 0.000000 0.328058 -1.792344 2.616619 0.962381 -25.298048 -3.091395 -0.352839 -1.718254 -0.029051 2.161525 -7.000179 0.960513 -86.643159 -19.132689 14.647633 3.898353 -22.597766 0.469541 -0.306238 -2.682098 0.391134 14.674711 12.149575 2.586220 57.798820 15.406131 15.946600 7.369292 47.285415 8.963971 0.000000 0.000000 0.000000 -3.122468 15.821022 -4.951056 0.814145 -33.252794 -16.028634 0.000000 -0.000000 -0.000000 -3.833224 -53.225711 -10.996817 -10.709401 -2.922396 22.551236 
2.603501 0.079500 -4.882711 175.319173 -28.253223 -179.095443 0.000000 -0.000000 0.000000 -5.908923 -2.656225 6.756850 -0.335801 -2.071620 1.864700 0.000000 0.000000 0.000000 0.277431 -1.748883 2.509531 0.730047 -24.723294 -3.393237 -0.377832 -1.667985 -0.060117 2.140798 -7.398126 1.097679 -86.379009 -19.377802 14.764456 3.932382 -23.713999 0.416268 -0.325656 -2.624963 0.317841 14.402122 12.117832 2.536417 57.856220 15.500919 16.246605 6.264076 46.988897 8.198077 0.000000 0.000000 -0.000000 -3.103645 15.595329 -5.395087 0.624446 -32.975321 -15.437204 0.000000 -0.000000 -0.000000 -3.791565 -52.499961 -10.894237 -10.072544 -2.062753 22.094268 
2.671789 0.116907 -4.967515 175.184250 -28.361426 -179.030253 0.000000 -0.000000 0.000000 -6.030520 -2.540519 6.785197 -0.366723 -1.990476 1.744424 0.000000 0.000000 0.000000 0.229702 -1.702108 2.383508 0.402472 -24.024941 -3.757460 -0.398473 -1.606595 -0.104750 2.184594 -7.627304 1.113005 -86.090949 -19.601663 14.824925 4.017919 -25.090839 0.351414 -0.340847 -2.556569 0.236829 14.175401 12.141634 2.503867 57.803207 15.575421 16.387691 5.233500 46.991173 7.469408 0.000000 0.000000 -0.000000 -3.073140 15.385007 -5.891238 0.404734 -32.633894 -14.766821 0.000000 -0.000000 -0.000000 -3.761850 -51.780337 -10.844904 -9.385565 -1.246207 21.741179 
2.746193 0.153109 -5.049155 175.005147 -28.492436 -178.934067 0.000000 -0.000000 0.000000 -6.137629 -2.402427 6.793648 -0.397389 -1.901689 1.612270 0.000000 0.000000 0.000000 0.194571 -1.653227 2.237335 0.019596 -23.177370 -4.245834 -0.413412 -1.537056 -0.160906 2.224072 -7.834983 1.124729 -85.758986 -19.812457 14.867468 4.148639 -26.638103 0.289063 -0.350016 -2.479590 0.146331 13.994260 12.233681 2.485603 57.676253 15.645997 16.350091 4.232877 47.359609 6.739051 0.000000 0.000000 -0.000000 -3.035901 15.179969 -6.452226 0.153064 -32.210102 -13.987901 0.000000 -0.000000 -0.000000 -3.751587 -51.230555 -10.787515 -8.762850 -0.650935 21.419301 
2.827859 0.186757 -5.128830 174.782881 -28.683771 -178.805099 0.000000 -0.000000 0.000000 -6.239708 -2.219296 6.793168 -0.431036 -1.804867 1.463363 0.000000 0.000000 0.000000 0.166550 -1.599721 2.074824 -0.427871 -22.127920 -4.897695 -0.425412 -1.460189 -0.229011 2.274308 -8.057653 1.137619 -85.383848 -20.072914 14.874162 4.309326 -28.301789 0.223278 -0.354692 -2.395131 0.044618 13.858145 12.407931 2.483779 57.513939 15.686387 16.256472 3.188312 47.997606 5.944683 0.000000 0.000000 -0.000000 -3.004487 14.990104 -7.085285 -0.128998 -31.719697 -13.099400 0.000000 -0.000000 -0.000000 -3.772797 -51.052126 -10.696293 -8.116328 0.005449 21.138906 
2.918339 0.216487 -5.206627 174.470307 -29.134688 -178.627365 0.000000 -0.000000 0.000000 -6.378023 -1.999388 6.806768 -0.473076 -1.704078 1.316962 0.000000 0.000000 0.000000 0.139867 -1.541225 1.904817 -0.489278 -20.819344 -5.851680 -0.440603 -1.380076 -0.299272 2.322761 -8.294641 1.155104 -84.994624 -20.308241 14.865122 4.476985 -30.088462 0.147111 -0.362359 -2.305549 -0.058492 13.751410 12.679679 2.497861 57.324914 15.710452 16.045736 2.118454 48.798117 5.079133 0.000000 0.000000 -0.000000 -2.983937 14.819017 -7.773176 -0.445361 -31.195736 -12.082253 0.000000 -0.000000 -0.000000 -3.860107 -51.254974 -10.550563 -7.417131 0.771404 20.874682 
3.016821 0.241965 -5.281588 174.023395 -30.100125 -178.383721 -0.000000 -0.000000 0.000000 -6.574594 -1.751519 6.893241 -0.534806 -1.603903 1.193578 0.000000 0.000000 0.000000 0.102429 -1.487722 1.732420 -0.557162 -19.254022 -7.063107 -0.465465 -1.297244 -0.362857 2.361097 -8.535959 1.180448 -84.586684 -20.559832 14.763565 4.663802 -32.988697 0.003521 -0.380320 -2.212759 -0.155809 13.659450 13.045030 2.525502 57.116585 15.717767 15.762646 0.991897 49.817370 4.186617 0.000000 0.000000 -0.000000 -3.024870 14.642735 -8.580983 -0.804840 -30.651857 -10.892273 0.000000 -0.000000 -0.000000 -3.976626 -51.703788 -10.384763 -6.638124 1.648034 20.589230 
